<svg width="20" height="20" viewBox="0 0 20 20" fill="none" xmlns="http://www.w3.org/2000/svg">
<g clip-path="url(#clip0)">
<path d="M18.9722 1.0282C17.6013 -0.342734 15.3707 -0.342734 13.9997 1.0282L2.58597 12.442C2.57074 12.4569 2.55629 12.4728 2.54265 12.4895C2.44906 12.6038 2.59636 12.2925 0.0892963 18.3812C-0.0914457 18.8201 0.00867136 19.3205 0.344296 19.6562C0.680194 19.9921 1.18078 20.0918 1.61933 19.9112C7.65726 17.425 7.43452 17.5412 7.55855 17.4145L18.9723 6.0007C20.3432 4.6298 20.3432 2.39914 18.9722 1.0282ZM1.17301 18.8275L1.75312 17.4186L2.58191 18.2473L1.17301 18.8275ZM3.75597 17.7639L2.23656 16.2445L3.20343 13.8964L6.1041 16.797L3.75597 17.7639ZM7.14007 16.1755L3.825 12.8604L11.5134 5.17195L14.8285 8.48699L7.14007 16.1755ZM15.6573 7.65824L12.3422 4.3432L13.171 3.51441L16.486 6.82949L15.6573 7.65824ZM18.1435 5.17203L17.3148 6.00078L13.9998 2.68574L14.8285 1.85699C15.7425 0.943008 17.2296 0.943047 18.1436 1.85699C19.0574 2.77094 19.0574 4.25805 18.1435 5.17203Z" fill="#4F7CE5"/>
</g>
<defs>
<clipPath id="clip0">
<rect width="20" height="20" fill="white"/>
</clipPath>
</defs>
</svg>
