<svg width="433" height="955" viewBox="0 0 433 955" fill="none" xmlns="http://www.w3.org/2000/svg">
<g clip-path="url(#clip0)">
<path d="M3.69114 7.04785C3.69114 7.04785 179.066 53.4136 303.66 184.519C372.31 256.749 425.538 354.708 425.538 484.801C425.538 851.035 1.70129 947.894 1.70129 947.894" stroke="#F9F9F9" stroke-width="15"/>
<path d="M303.61 181.832C303.61 181.832 316.684 195.898 329.339 211.922C335.309 219.777 342.562 229.385 348.929 238.37C355.297 247.355 361.117 256.925 366.599 266.367C372.987 277.384 378.759 288.731 383.891 300.36" stroke="#FF5C5C" stroke-width="15"/>
<path d="M403.988 351.817C403.988 351.817 409.838 366.954 415.012 386.345C417.539 395.817 419.748 406.554 421.349 416.523C422.951 426.491 424.414 437.617 424.981 447.673C426.135 468.184 425.14 485.18 425.14 485.18" stroke="#93D6D9" stroke-width="15"/>
<path d="M424.026 522.902C424.026 522.902 422.553 538.906 419.569 558.725C418.116 568.411 416.305 579.08 413.858 589.068C411.41 599.056 407.739 609.423 404.903 619.012C397.76 638.335 390.208 653.754 390.208 653.754" stroke="#E7C36A" stroke-width="15"/>
</g>
<defs>
<clipPath id="clip0">
<rect width="433" height="955" fill="white"/>
</clipPath>
</defs>
</svg>
