<svg width="68" height="68" viewBox="0 0 68 68" fill="none" xmlns="http://www.w3.org/2000/svg">
<path d="M34 68C15.2226 68 0 52.7777 0 34C0 15.2223 15.2226 0 34 0C52.7774 0 68 15.2223 68 34C68 52.7777 52.7774 68 34 68ZM45.7513 32.1977L28.7512 21.5727C28.4073 21.358 28.0161 21.25 27.625 21.25C27.2707 21.25 26.9158 21.3382 26.5946 21.5167C25.9192 21.8912 25.5 22.602 25.5 23.375V44.625C25.5 45.398 25.9192 46.1088 26.5946 46.4833C27.2701 46.86 28.0961 46.8371 28.7512 46.4273L45.7513 35.8023C46.3723 35.4131 46.75 34.7325 46.75 34C46.75 33.2675 46.3723 32.5867 45.7513 32.1977Z" fill="#4F7CE5"/>
</svg>
