<svg width="50" height="50" viewBox="0 0 50 50" fill="none" xmlns="http://www.w3.org/2000/svg">
<path d="M48.0469 26.9531H26.9531V48.0469C26.9531 49.1256 26.0787 50 25 50C23.9213 50 23.0469 49.1256 23.0469 48.0469V26.9531H1.95312C0.874414 26.9531 0 26.0787 0 25C0 23.9213 0.874414 23.0469 1.95312 23.0469H23.0469V1.95312C23.0469 0.874413 23.9213 0 25 0C26.0787 0 26.9531 0.874413 26.9531 1.95312V23.0469H48.0469C49.1256 23.0469 50 23.9213 50 25C50 26.0787 49.1256 26.9531 48.0469 26.9531Z" fill="#4F7CE5"/>
</svg>
