<svg width="20" height="20" viewBox="0 0 20 20" fill="none" xmlns="http://www.w3.org/2000/svg">
<path d="M17.0312 2.34375H13.5156V1.75781C13.5156 0.788555 12.7271 0 11.7578 0H8.24219C7.27293 0 6.48438 0.788555 6.48438 1.75781V2.34375H2.96875C1.99949 2.34375 1.21094 3.1323 1.21094 4.10156V5.27344C1.21094 5.59703 1.47328 5.85938 1.79688 5.85938H2.42902L3.45977 18.3963C3.45988 18.398 3.46004 18.3996 3.4602 18.4013C3.54309 19.3127 4.2957 20 5.21078 20H14.7892C15.7043 20 16.4569 19.3127 16.5398 18.4013C16.5399 18.3996 16.5401 18.398 16.5402 18.3963L17.571 5.85938H18.2031C18.5267 5.85938 18.7891 5.59703 18.7891 5.27344V4.10156C18.7891 3.1323 18.0005 2.34375 17.0312 2.34375ZM7.65625 1.75781C7.65625 1.43473 7.9191 1.17188 8.24219 1.17188H11.7578C12.0809 1.17188 12.3438 1.43473 12.3438 1.75781V2.34375H7.65625V1.75781ZM15.3725 18.2972C15.3441 18.6 15.0936 18.8281 14.7892 18.8281H5.21078C4.90641 18.8281 4.65594 18.6 4.62742 18.2972L3.60484 5.85938H16.3952L15.3725 18.2972ZM17.6172 4.6875H17.0312H2.96875H2.38281V4.10156C2.38281 3.77848 2.64566 3.51562 2.96875 3.51562H7.07031H12.9297H17.0312C17.3543 3.51562 17.6172 3.77848 17.6172 4.10156V4.6875Z" fill="#4F7CE5"/>
<path d="M10 7.03125C9.67641 7.03125 9.41406 7.29359 9.41406 7.61719V15.8984C9.41406 16.222 9.67641 16.4844 10 16.4844C10.3236 16.4844 10.5859 16.222 10.5859 15.8984V7.61719C10.5859 7.29359 10.3236 7.03125 10 7.03125Z" fill="#4F7CE5"/>
<path d="M13.5156 7.03125C13.192 7.03125 12.9297 7.29359 12.9297 7.61719V15.8984C12.9297 16.222 13.192 16.4844 13.5156 16.4844C13.8392 16.4844 14.1016 16.222 14.1016 15.8984V7.61719C14.1016 7.29359 13.8392 7.03125 13.5156 7.03125Z" fill="#4F7CE5"/>
<path d="M6.48438 7.03125C6.16078 7.03125 5.89844 7.29359 5.89844 7.61719V15.8984C5.89844 16.222 6.16078 16.4844 6.48438 16.4844C6.80797 16.4844 7.07031 16.222 7.07031 15.8984V7.61719C7.07031 7.29359 6.80797 7.03125 6.48438 7.03125Z" fill="#4F7CE5"/>
</svg>
