<svg width="48" height="48" viewBox="0 0 48 48" fill="none" xmlns="http://www.w3.org/2000/svg">
<path d="M24 0C10.7472 0 0 10.7472 0 24C0 37.2528 10.7472 48 24 48C37.2528 48 48 37.2528 48 24C48 10.7472 37.2528 0 24 0ZM24.5087 37.9735C24.5083 37.9735 24.509 37.9735 24.5087 37.9735H24.5028C22.0986 37.9724 19.7362 37.3696 17.6382 36.2256L10.0236 38.2225L12.0615 30.7811C10.8043 28.6036 10.1429 26.1332 10.144 23.6023C10.1473 15.6848 16.5912 9.24353 24.5087 9.24353C28.351 9.245 31.9578 10.7406 34.6696 13.4546C37.3817 16.1689 38.8744 19.7769 38.8729 23.6136C38.8696 31.5315 32.425 37.9735 24.5087 37.9735Z" fill="#4F7CE5"/>
<path d="M24.5134 12C17.9279 12 12.572 17.3536 12.5691 23.9344C12.5684 26.1896 13.1997 28.3857 14.3947 30.286L14.6785 30.7375L13.4722 35.142L17.9908 33.9569L18.427 34.2155C20.2599 35.3031 22.3612 35.8784 24.5035 35.8792H24.5083C31.0888 35.8792 36.4446 30.5251 36.4475 23.944C36.4486 20.7546 35.2079 17.7561 32.9539 15.5002C30.6998 13.2444 27.702 12.0011 24.5134 12ZM31.5359 29.0658C31.2367 29.9037 29.803 30.6687 29.1134 30.772C28.4949 30.8643 27.7127 30.9027 26.8528 30.6299C26.3313 30.4644 25.663 30.2435 24.8064 29.874C21.2062 28.3198 18.8547 24.6958 18.6753 24.4563C18.4959 24.2168 17.2097 22.5106 17.2097 20.7444C17.2097 18.9785 18.137 18.1102 18.4658 17.7513C18.795 17.3921 19.184 17.3024 19.4231 17.3024C19.6622 17.3024 19.9017 17.3046 20.1108 17.3148C20.3313 17.3258 20.6272 17.231 20.9183 17.9308C21.2175 18.6493 21.9353 20.4152 22.025 20.5946C22.1147 20.7744 22.1744 20.9839 22.0551 21.2234C21.9353 21.4629 21.5376 21.9796 21.1578 22.4506C20.9985 22.6479 20.7909 22.8237 21.0004 23.183C21.2095 23.5419 21.9302 24.717 22.997 25.6685C24.368 26.8909 25.5245 27.2695 25.8834 27.4493C26.2419 27.6288 26.4514 27.5988 26.6609 27.3596C26.87 27.1201 27.5581 26.3119 27.7972 25.9526C28.0364 25.5934 28.2759 25.6534 28.6047 25.7732C28.934 25.8926 30.6984 26.7609 31.0573 26.9403C31.4161 27.1201 31.6553 27.2098 31.745 27.3596C31.8351 27.5094 31.8351 28.2275 31.5359 29.0658Z" fill="#4F7CE5"/>
</svg>
