<svg width="48" height="48" viewBox="0 0 48 48" fill="none" xmlns="http://www.w3.org/2000/svg">
<path d="M24 0C10.7456 0 0 10.7451 0 24C0 37.2549 10.7456 48 24 48C37.2544 48 48 37.2549 48 24C48 10.7451 37.2544 0 24 0ZM36.1741 26.5957C37.2927 27.6883 38.4761 28.7165 39.4803 29.922C39.9252 30.4553 40.3446 31.0068 40.6637 31.627C41.1194 32.5113 40.7079 33.4812 39.9164 33.5337L34.9995 33.5327C33.7296 33.6378 32.7191 33.1256 31.8671 32.2575C31.187 31.5656 30.556 30.8266 29.9009 30.1111C29.6333 29.8175 29.3514 29.541 29.0156 29.3235C28.3453 28.8874 27.7629 29.021 27.3789 29.7212C26.9875 30.4337 26.8982 31.2233 26.8608 32.0164C26.8073 33.1757 26.4577 33.4787 25.2944 33.5332C22.8087 33.6496 20.4502 33.2725 18.2582 32.0193C16.3244 30.914 14.8277 29.3539 13.5235 27.5876C10.9838 24.1444 9.03873 20.3653 7.29109 16.4776C6.89776 15.6021 7.18551 15.1336 8.15141 15.1155C9.75615 15.0845 11.3609 15.0885 12.9656 15.114C13.6187 15.1243 14.0509 15.498 14.3018 16.1143C15.169 18.2479 16.2321 20.2779 17.5643 22.1605C17.9193 22.6619 18.2817 23.1618 18.7978 23.5158C19.3674 23.9067 19.8015 23.7776 20.0701 23.1416C20.242 22.7375 20.3162 22.3054 20.3535 21.8723C20.4811 20.3888 20.4964 18.9059 20.2754 17.4283C20.1379 16.5037 19.6179 15.9065 18.6962 15.7317C18.2267 15.6428 18.2955 15.469 18.5238 15.2009C18.9201 14.7374 19.2913 14.4506 20.0333 14.4506L25.5885 14.4496C26.4641 14.6215 26.6605 15.0143 26.7793 15.8962L26.7842 22.0697C26.7739 22.411 26.9556 23.4225 27.5684 23.646C28.0595 23.808 28.3836 23.4142 28.6772 23.1033C30.0095 21.6896 30.9587 20.021 31.8087 18.294C32.1838 17.5324 32.5074 16.7443 32.8217 15.9547C33.0554 15.3708 33.4188 15.0835 34.0778 15.0934L39.4273 15.0997C39.5849 15.0997 39.745 15.1012 39.9011 15.1282C40.8027 15.2824 41.0497 15.6703 40.7708 16.5498C40.3318 17.9316 39.4788 19.0826 38.645 20.2366C37.7513 21.4721 36.7982 22.6643 35.9133 23.9052C35.1002 25.0396 35.1645 25.6106 36.1741 26.5957Z" fill="#4F7CE5"/>
</svg>
