<svg width="20" height="20" viewBox="0 0 20 20" fill="none" xmlns="http://www.w3.org/2000/svg">
<g clip-path="url(#clip0)">
<path d="M5.13444 12.9834L1.67455 10.1861L5.13444 7.38869C5.39702 7.13274 5.39702 6.71751 5.13444 6.46157C4.87182 6.20562 4.44659 6.20562 4.18398 6.46157L0.190886 9.68952C0.050918 9.82615 -0.00839598 10.0075 0.000950471 10.1861C-0.00839598 10.3647 0.050918 10.546 0.190886 10.6826L4.18398 13.9106C4.44659 14.1665 4.87182 14.1665 5.13444 13.9106C5.39702 13.6546 5.39702 13.2394 5.13444 12.9834ZM14.6383 1.41942C14.3197 1.2388 13.9118 1.34609 13.7278 1.6587L5.3964 17.713C5.21245 18.0256 5.28843 18.5035 5.64036 18.6055C6.07095 18.7301 6.36686 18.6788 6.55082 18.3662L14.8822 2.31191C15.0668 1.9986 14.9575 1.59935 14.6383 1.41942ZM19.8084 9.68952L15.816 6.46094C15.5534 6.205 15.1282 6.205 14.8656 6.46094C14.6029 6.71689 14.6029 7.13212 14.8656 7.38807L18.3254 10.1854L14.8656 12.9828C14.6029 13.2388 14.6029 13.654 14.8656 13.9099C15.1281 14.1658 15.5534 14.1658 15.816 13.9099L19.8091 10.682C19.9491 10.5454 20.0084 10.3641 19.9991 10.1855C20.0084 10.0074 19.9484 9.82615 19.8084 9.68952Z" fill="#4F7CE5"/>
</g>
<defs>
<clipPath id="clip0">
<rect width="20" height="20" fill="white"/>
</clipPath>
</defs>
</svg>
