<svg width="12" height="12" viewBox="0 0 12 12" fill="none" xmlns="http://www.w3.org/2000/svg">
<path d="M6 0C2.68612 0 0 2.68612 0 6C0 9.31351 2.68612 12 6 12C9.31351 12 12 9.31388 12 6C12 2.68612 9.31351 0 6 0ZM6 11.25C3.10051 11.25 0.750012 8.89949 0.750012 6C0.750012 3.10051 3.10051 0.750012 6 0.750012C8.89949 0.750012 11.25 3.10051 11.25 6C11.25 8.89949 8.89949 11.25 6 11.25Z" fill="#4F7CE5"/>
<path d="M8.52303 7.97662L6.54752 6.00073L8.51177 4.05262C8.6599 3.90599 8.6599 3.66862 8.51177 3.52237C8.36402 3.37611 8.12404 3.37611 7.97628 3.52237L6.01465 5.46786L4.02377 3.47661C3.87602 3.32811 3.63603 3.32811 3.48828 3.47661C3.34053 3.62474 3.34053 3.86547 3.48828 4.0136L5.47616 6.00186L3.47702 7.98447C3.32927 8.1311 3.32927 8.36847 3.47702 8.51473C3.62478 8.66136 3.86476 8.66136 4.01289 8.51473L6.00938 6.53473L7.98788 8.51323C8.13563 8.66173 8.37562 8.66173 8.52337 8.51323C8.67078 8.36548 8.67078 8.12512 8.52303 7.97662Z" fill="#4F7CE5"/>
</svg>
