<svg width="30" height="24" viewBox="0 0 30 24" fill="none" xmlns="http://www.w3.org/2000/svg">
<path d="M29.4828 0.103455H0.517241C0.231724 0.103455 0 0.334661 0 0.620696V23.3793C0 23.6653 0.231724 23.8966 0.517241 23.8966H29.4828C29.7683 23.8966 30 23.6653 30 23.3793V0.620696C30 0.334661 29.7683 0.103455 29.4828 0.103455ZM28.9655 22.8621H1.03448V1.13794H28.9655V22.8621Z" fill="#4F7CE5"/>
<path d="M8.27603 11.5541C9.86448 11.5541 11.1565 10.2621 11.1565 8.67413C11.1565 7.08516 9.86448 5.79309 8.27603 5.79309C6.68758 5.79309 5.39551 7.08516 5.39551 8.67361C5.39551 10.2621 6.68758 11.5541 8.27603 11.5541ZM8.27603 6.82757C9.29396 6.82757 10.1221 7.6562 10.1221 8.67361C10.1221 9.69102 9.29396 10.5196 8.27603 10.5196C7.25809 10.5196 6.42999 9.69154 6.42999 8.67413C6.42999 7.65671 7.25809 6.82757 8.27603 6.82757Z" fill="#4F7CE5"/>
<path d="M3.62005 20.7931C3.74109 20.7931 3.86316 20.7507 3.96143 20.6643L12.3992 13.2357L17.7278 18.5638C17.9301 18.766 18.257 18.766 18.4592 18.5638C18.6614 18.3615 18.6614 18.0346 18.4592 17.8324L15.9728 15.346L20.7216 10.1457L26.5463 15.4852C26.7568 15.6781 27.0842 15.6636 27.2771 15.4531C27.4701 15.2426 27.4561 14.9152 27.2451 14.7222L21.0382 9.03258C20.9368 8.93999 20.8018 8.89396 20.6657 8.89706C20.5287 8.90327 20.3994 8.96378 20.3068 9.06516L15.2409 14.6136L12.7876 12.1603C12.5942 11.9674 12.2849 11.9576 12.0801 12.1376L3.27816 19.8874C3.0635 20.0762 3.04281 20.4031 3.23161 20.6177C3.33402 20.7341 3.47678 20.7931 3.62005 20.7931Z" fill="#4F7CE5"/>
</svg>
