<svg width="46" height="47" viewBox="0 0 46 47" fill="none" xmlns="http://www.w3.org/2000/svg">
<rect y="1" width="46" height="46" fill="#1F3FDF"/>
<path d="M2.648 6.50671C2.708 6.09071 2.824 5.72671 2.996 5.41471C3.168 5.09871 3.382 4.83671 3.638 4.62871C3.898 4.41671 4.194 4.25871 4.526 4.15471C4.862 4.04671 5.222 3.99271 5.606 3.99271C6.006 3.99271 6.366 4.05071 6.686 4.16671C7.01 4.27871 7.286 4.43671 7.514 4.64071C7.742 4.84071 7.916 5.07671 8.036 5.34871C8.16 5.62071 8.222 5.91471 8.222 6.23071C8.222 6.50671 8.19 6.75071 8.126 6.96271C8.066 7.17071 7.978 7.35271 7.862 7.50871C7.746 7.66471 7.602 7.79671 7.43 7.90471C7.258 8.01271 7.064 8.10271 6.848 8.17471C7.368 8.33871 7.756 8.58871 8.012 8.92471C8.268 9.26071 8.396 9.68271 8.396 10.1907C8.396 10.6227 8.316 11.0047 8.156 11.3367C7.996 11.6687 7.78 11.9487 7.508 12.1767C7.236 12.4007 6.92 12.5707 6.56 12.6867C6.204 12.8027 5.826 12.8607 5.426 12.8607C4.99 12.8607 4.61 12.8107 4.286 12.7107C3.962 12.6107 3.68 12.4627 3.44 12.2667C3.2 12.0707 2.996 11.8307 2.828 11.5467C2.66 11.2627 2.516 10.9347 2.396 10.5627L3.05 10.2927C3.222 10.2207 3.382 10.2027 3.53 10.2387C3.682 10.2707 3.792 10.3507 3.86 10.4787C3.932 10.6187 4.01 10.7567 4.094 10.8927C4.182 11.0287 4.286 11.1507 4.406 11.2587C4.526 11.3627 4.666 11.4487 4.826 11.5167C4.99 11.5807 5.184 11.6127 5.408 11.6127C5.66 11.6127 5.88 11.5727 6.068 11.4927C6.256 11.4087 6.412 11.3007 6.536 11.1687C6.664 11.0367 6.758 10.8907 6.818 10.7307C6.882 10.5667 6.914 10.4027 6.914 10.2387C6.914 10.0307 6.892 9.84271 6.848 9.67471C6.804 9.50271 6.712 9.35671 6.572 9.23671C6.432 9.11671 6.23 9.02271 5.966 8.95471C5.706 8.88671 5.356 8.85271 4.916 8.85271V7.79671C5.28 7.79271 5.582 7.75871 5.822 7.69471C6.062 7.63071 6.252 7.54271 6.392 7.43071C6.536 7.31471 6.636 7.17671 6.692 7.01671C6.748 6.85671 6.776 6.68071 6.776 6.48871C6.776 6.08071 6.662 5.77071 6.434 5.55871C6.206 5.34671 5.902 5.24071 5.522 5.24071C5.346 5.24071 5.184 5.26671 5.036 5.31871C4.888 5.36671 4.754 5.43671 4.634 5.52871C4.518 5.61671 4.42 5.72071 4.34 5.84071C4.26 5.96071 4.2 6.09271 4.16 6.23671C4.092 6.42071 4.002 6.54271 3.89 6.60271C3.782 6.66271 3.628 6.67671 3.428 6.64471L2.648 6.50671ZM12.0929 7.23871L11.7929 7.61071C11.9609 7.52671 12.1409 7.46271 12.3329 7.41871C12.5289 7.37071 12.7389 7.34671 12.9629 7.34671C13.2909 7.34671 13.6089 7.40071 13.9169 7.50871C14.2289 7.61671 14.5029 7.78071 14.7389 8.00071C14.9749 8.21671 15.1649 8.48671 15.3089 8.81071C15.4529 9.13471 15.5249 9.51271 15.5249 9.94471C15.5249 10.3487 15.4509 10.7287 15.3029 11.0847C15.1549 11.4367 14.9469 11.7447 14.6789 12.0087C14.4109 12.2727 14.0869 12.4807 13.7069 12.6327C13.3309 12.7847 12.9149 12.8607 12.4589 12.8607C11.9949 12.8607 11.5789 12.7867 11.2109 12.6387C10.8429 12.4907 10.5289 12.2847 10.2689 12.0207C10.0089 11.7527 9.80894 11.4327 9.66894 11.0607C9.53294 10.6847 9.46494 10.2687 9.46494 9.81271C9.46494 9.40471 9.54694 8.98671 9.71094 8.55871C9.87894 8.12671 10.1369 7.67871 10.4849 7.21471L12.5549 4.43671C12.6269 4.34071 12.7309 4.25871 12.8669 4.19071C13.0069 4.12271 13.1669 4.08871 13.3469 4.08871H14.6669L12.0929 7.23871ZM12.4289 11.6487C12.6649 11.6487 12.8809 11.6087 13.0769 11.5287C13.2769 11.4487 13.4469 11.3367 13.5869 11.1927C13.7309 11.0487 13.8429 10.8807 13.9229 10.6887C14.0029 10.4927 14.0429 10.2807 14.0429 10.0527C14.0429 9.80471 14.0049 9.58271 13.9289 9.38671C13.8529 9.18671 13.7449 9.01871 13.6049 8.88271C13.4649 8.74271 13.2969 8.63671 13.1009 8.56471C12.9049 8.49271 12.6889 8.45671 12.4529 8.45671C12.2169 8.45671 12.0029 8.49671 11.8109 8.57671C11.6189 8.65671 11.4549 8.76871 11.3189 8.91271C11.1829 9.05271 11.0769 9.22071 11.0009 9.41671C10.9249 9.60871 10.8869 9.81671 10.8869 10.0407C10.8869 10.2807 10.9189 10.5007 10.9829 10.7007C11.0509 10.8967 11.1489 11.0647 11.2769 11.2047C11.4089 11.3447 11.5709 11.4547 11.7629 11.5347C11.9549 11.6107 12.1769 11.6487 12.4289 11.6487ZM22.5819 8.42671C22.5819 9.18271 22.4999 9.84071 22.3359 10.4007C22.1759 10.9567 21.9519 11.4167 21.6639 11.7807C21.3799 12.1447 21.0419 12.4167 20.6499 12.5967C20.2619 12.7727 19.8419 12.8607 19.3899 12.8607C18.9379 12.8607 18.5179 12.7727 18.1299 12.5967C17.7459 12.4167 17.4119 12.1447 17.1279 11.7807C16.8439 11.4167 16.6219 10.9567 16.4619 10.4007C16.3019 9.84071 16.2219 9.18271 16.2219 8.42671C16.2219 7.66671 16.3019 7.00871 16.4619 6.45271C16.6219 5.89671 16.8439 5.43671 17.1279 5.07271C17.4119 4.70871 17.7459 4.43871 18.1299 4.26271C18.5179 4.08271 18.9379 3.99271 19.3899 3.99271C19.8419 3.99271 20.2619 4.08271 20.6499 4.26271C21.0419 4.43871 21.3799 4.70871 21.6639 5.07271C21.9519 5.43671 22.1759 5.89671 22.3359 6.45271C22.4999 7.00871 22.5819 7.66671 22.5819 8.42671ZM21.0519 8.42671C21.0519 7.79871 21.0059 7.27871 20.9139 6.86671C20.8219 6.45471 20.6979 6.12671 20.5419 5.88271C20.3899 5.63871 20.2139 5.46871 20.0139 5.37271C19.8139 5.27271 19.6059 5.22271 19.3899 5.22271C19.1779 5.22271 18.9719 5.27271 18.7719 5.37271C18.5759 5.46871 18.4019 5.63871 18.2499 5.88271C18.0979 6.12671 17.9759 6.45471 17.8839 6.86671C17.7959 7.27871 17.7519 7.79871 17.7519 8.42671C17.7519 9.05471 17.7959 9.57471 17.8839 9.98671C17.9759 10.3987 18.0979 10.7267 18.2499 10.9707C18.4019 11.2147 18.5759 11.3867 18.7719 11.4867C18.9719 11.5827 19.1779 11.6307 19.3899 11.6307C19.6059 11.6307 19.8139 11.5827 20.0139 11.4867C20.2139 11.3867 20.3899 11.2147 20.5419 10.9707C20.6979 10.7267 20.8219 10.3987 20.9139 9.98671C21.0059 9.57471 21.0519 9.05471 21.0519 8.42671ZM10.28 18.0887V26.7647H8.66V22.9727H4.586V26.7647H2.966V18.0887H4.586V21.8207H8.66V18.0887H10.28ZM20.4861 22.4267C20.4861 23.0627 20.3801 23.6527 20.1681 24.1967C19.9601 24.7367 19.6641 25.2047 19.2801 25.6007C18.8961 25.9967 18.4341 26.3067 17.8941 26.5307C17.3541 26.7507 16.7541 26.8607 16.0941 26.8607C15.4381 26.8607 14.8401 26.7507 14.3001 26.5307C13.7601 26.3067 13.2961 25.9967 12.9081 25.6007C12.5241 25.2047 12.2261 24.7367 12.0141 24.1967C11.8021 23.6527 11.6961 23.0627 11.6961 22.4267C11.6961 21.7907 11.8021 21.2027 12.0141 20.6627C12.2261 20.1187 12.5241 19.6487 12.9081 19.2527C13.2961 18.8567 13.7601 18.5487 14.3001 18.3287C14.8401 18.1047 15.4381 17.9927 16.0941 17.9927C16.5341 17.9927 16.9481 18.0447 17.3361 18.1487C17.7241 18.2487 18.0801 18.3927 18.4041 18.5807C18.7281 18.7647 19.0181 18.9907 19.2741 19.2587C19.5341 19.5227 19.7541 19.8187 19.9341 20.1467C20.1141 20.4747 20.2501 20.8307 20.3421 21.2147C20.4381 21.5987 20.4861 22.0027 20.4861 22.4267ZM18.8361 22.4267C18.8361 21.9507 18.7721 21.5247 18.6441 21.1487C18.5161 20.7687 18.3341 20.4467 18.0981 20.1827C17.8621 19.9187 17.5741 19.7167 17.2341 19.5767C16.8981 19.4367 16.5181 19.3667 16.0941 19.3667C15.6701 19.3667 15.2881 19.4367 14.9481 19.5767C14.6121 19.7167 14.3241 19.9187 14.0841 20.1827C13.8481 20.4467 13.6661 20.7687 13.5381 21.1487C13.4101 21.5247 13.3461 21.9507 13.3461 22.4267C13.3461 22.9027 13.4101 23.3307 13.5381 23.7107C13.6661 24.0867 13.8481 24.4067 14.0841 24.6707C14.3241 24.9307 14.6121 25.1307 14.9481 25.2707C15.2881 25.4107 15.6701 25.4807 16.0941 25.4807C16.5181 25.4807 16.8981 25.4107 17.2341 25.2707C17.5741 25.1307 17.8621 24.9307 18.0981 24.6707C18.3341 24.4067 18.5161 24.0867 18.6441 23.7107C18.7721 23.3307 18.8361 22.9027 18.8361 22.4267ZM25.3955 25.4627C25.7075 25.4627 25.9855 25.4107 26.2295 25.3067C26.4775 25.2027 26.6855 25.0567 26.8535 24.8687C27.0215 24.6807 27.1495 24.4527 27.2375 24.1847C27.3295 23.9167 27.3755 23.6167 27.3755 23.2847V18.0887H28.9895V23.2847C28.9895 23.8007 28.9055 24.2787 28.7375 24.7187C28.5735 25.1547 28.3355 25.5327 28.0235 25.8527C27.7155 26.1687 27.3395 26.4167 26.8955 26.5967C26.4515 26.7727 25.9515 26.8607 25.3955 26.8607C24.8355 26.8607 24.3335 26.7727 23.8895 26.5967C23.4455 26.4167 23.0675 26.1687 22.7555 25.8527C22.4475 25.5327 22.2095 25.1547 22.0415 24.7187C21.8775 24.2787 21.7955 23.8007 21.7955 23.2847V18.0887H23.4095V23.2787C23.4095 23.6107 23.4535 23.9107 23.5415 24.1787C23.6335 24.4467 23.7635 24.6767 23.9315 24.8687C24.1035 25.0567 24.3115 25.2027 24.5555 25.3067C24.8035 25.4107 25.0835 25.4627 25.3955 25.4627ZM35.4298 19.6667C35.3818 19.7507 35.3298 19.8127 35.2738 19.8527C35.2218 19.8887 35.1558 19.9067 35.0758 19.9067C34.9918 19.9067 34.8998 19.8767 34.7998 19.8167C34.7038 19.7527 34.5878 19.6827 34.4518 19.6067C34.3158 19.5307 34.1558 19.4627 33.9718 19.4027C33.7918 19.3387 33.5778 19.3067 33.3298 19.3067C33.1058 19.3067 32.9098 19.3347 32.7418 19.3907C32.5738 19.4427 32.4318 19.5167 32.3158 19.6127C32.2038 19.7087 32.1198 19.8247 32.0638 19.9607C32.0078 20.0927 31.9798 20.2387 31.9798 20.3987C31.9798 20.6027 32.0358 20.7727 32.1478 20.9087C32.2638 21.0447 32.4158 21.1607 32.6038 21.2567C32.7918 21.3527 33.0058 21.4387 33.2458 21.5147C33.4858 21.5907 33.7318 21.6727 33.9838 21.7607C34.2358 21.8447 34.4818 21.9447 34.7218 22.0607C34.9618 22.1727 35.1758 22.3167 35.3638 22.4927C35.5518 22.6647 35.7018 22.8767 35.8138 23.1287C35.9298 23.3807 35.9878 23.6867 35.9878 24.0467C35.9878 24.4387 35.9198 24.8067 35.7838 25.1507C35.6518 25.4907 35.4558 25.7887 35.1958 26.0447C34.9398 26.2967 34.6258 26.4967 34.2538 26.6447C33.8818 26.7887 33.4558 26.8607 32.9758 26.8607C32.6998 26.8607 32.4278 26.8327 32.1598 26.7767C31.8918 26.7247 31.6338 26.6487 31.3857 26.5487C31.1418 26.4487 30.9118 26.3287 30.6958 26.1887C30.4798 26.0487 30.2878 25.8927 30.1198 25.7207L30.5938 24.9467C30.6338 24.8907 30.6858 24.8447 30.7498 24.8087C30.8138 24.7687 30.8818 24.7487 30.9538 24.7487C31.0538 24.7487 31.1618 24.7907 31.2778 24.8747C31.3938 24.9547 31.5318 25.0447 31.6918 25.1447C31.8518 25.2447 32.0378 25.3367 32.2498 25.4207C32.4658 25.5007 32.7238 25.5407 33.0238 25.5407C33.4838 25.5407 33.8398 25.4327 34.0918 25.2167C34.3438 24.9967 34.4698 24.6827 34.4698 24.2747C34.4698 24.0467 34.4118 23.8607 34.2958 23.7167C34.1838 23.5727 34.0338 23.4527 33.8458 23.3567C33.6578 23.2567 33.4438 23.1727 33.2038 23.1047C32.9638 23.0367 32.7198 22.9627 32.4718 22.8827C32.2238 22.8027 31.9798 22.7067 31.7398 22.5947C31.4998 22.4827 31.2858 22.3367 31.0978 22.1567C30.9098 21.9767 30.7578 21.7527 30.6418 21.4847C30.5298 21.2127 30.4738 20.8787 30.4738 20.4827C30.4738 20.1667 30.5358 19.8587 30.6598 19.5587C30.7878 19.2587 30.9718 18.9927 31.2118 18.7607C31.4518 18.5287 31.7478 18.3427 32.0998 18.2027C32.4518 18.0627 32.8558 17.9927 33.3118 17.9927C33.8238 17.9927 34.2958 18.0727 34.7278 18.2327C35.1598 18.3927 35.5278 18.6167 35.8318 18.9047L35.4298 19.6667ZM39.0157 19.3727V21.7787H42.0517V23.0207H39.0157V25.4747H42.8677V26.7647H37.3957V18.0887H42.8677V19.3727H39.0157ZM3.97 38.7647H3.612V37.0107H2.64V38.7647H2.282V36.7387H3.97V38.7647ZM4.89391 38.2767C4.95924 38.3647 5.03057 38.4267 5.10791 38.4627C5.18524 38.4987 5.27191 38.5167 5.36791 38.5167C5.55724 38.5167 5.70257 38.4494 5.80391 38.3147C5.90524 38.18 5.95591 37.988 5.95591 37.7387C5.95591 37.6067 5.94391 37.4934 5.91991 37.3987C5.89724 37.304 5.86391 37.2267 5.81991 37.1667C5.77591 37.1054 5.72191 37.0607 5.65791 37.0327C5.59391 37.0047 5.52124 36.9907 5.43991 36.9907C5.32391 36.9907 5.22191 37.0174 5.13391 37.0707C5.04724 37.124 4.96724 37.1994 4.89391 37.2967V38.2767ZM4.87591 37.0527C4.96124 36.9474 5.05991 36.8627 5.17191 36.7987C5.28391 36.7347 5.41191 36.7027 5.55591 36.7027C5.67324 36.7027 5.77924 36.7254 5.87391 36.7707C5.96857 36.8147 6.04924 36.8807 6.11591 36.9687C6.18257 37.0554 6.23391 37.1634 6.26991 37.2927C6.30591 37.422 6.32391 37.5707 6.32391 37.7387C6.32391 37.888 6.30391 38.0274 6.26391 38.1567C6.22391 38.2847 6.16591 38.396 6.08991 38.4907C6.01524 38.584 5.92324 38.658 5.81391 38.7127C5.70591 38.766 5.58391 38.7927 5.44791 38.7927C5.32391 38.7927 5.21724 38.772 5.12791 38.7307C5.03991 38.688 4.96191 38.6294 4.89391 38.5547V39.4507H4.53591V36.7387H4.74991C4.80057 36.7387 4.83191 36.7634 4.84391 36.8127L4.87591 37.0527ZM7.62819 36.7067C7.77619 36.7067 7.90952 36.7314 8.02819 36.7807C8.14685 36.83 8.24819 36.9 8.33219 36.9907C8.41619 37.0814 8.48019 37.1914 8.52419 37.3207C8.56952 37.4487 8.59219 37.592 8.59219 37.7507C8.59219 37.9107 8.56952 38.0547 8.52419 38.1827C8.48019 38.3107 8.41619 38.42 8.33219 38.5107C8.24819 38.6014 8.14685 38.6714 8.02819 38.7207C7.90952 38.7687 7.77619 38.7927 7.62819 38.7927C7.47885 38.7927 7.34419 38.7687 7.22419 38.7207C7.10552 38.6714 7.00419 38.6014 6.92019 38.5107C6.83619 38.42 6.77152 38.3107 6.72619 38.1827C6.68219 38.0547 6.66019 37.9107 6.66019 37.7507C6.66019 37.592 6.68219 37.4487 6.72619 37.3207C6.77152 37.1914 6.83619 37.0814 6.92019 36.9907C7.00419 36.9 7.10552 36.83 7.22419 36.7807C7.34419 36.7314 7.47885 36.7067 7.62819 36.7067ZM7.62819 38.5147C7.82819 38.5147 7.97752 38.448 8.07619 38.3147C8.17485 38.18 8.22419 37.9927 8.22419 37.7527C8.22419 37.5114 8.17485 37.3234 8.07619 37.1887C7.97752 37.054 7.82819 36.9867 7.62819 36.9867C7.52685 36.9867 7.43819 37.004 7.36219 37.0387C7.28752 37.0734 7.22485 37.1234 7.17419 37.1887C7.12485 37.254 7.08752 37.3347 7.06219 37.4307C7.03819 37.5254 7.02619 37.6327 7.02619 37.7527C7.02619 37.9927 7.07552 38.18 7.17419 38.3147C7.27419 38.448 7.42552 38.5147 7.62819 38.5147ZM10.4537 37.0987C10.4431 37.1134 10.4324 37.1247 10.4217 37.1327C10.4111 37.1407 10.3964 37.1447 10.3777 37.1447C10.3577 37.1447 10.3357 37.1367 10.3117 37.1207C10.2877 37.1034 10.2577 37.0847 10.2217 37.0647C10.1871 37.0447 10.1437 37.0267 10.0917 37.0107C10.0411 36.9934 9.97839 36.9847 9.90372 36.9847C9.80372 36.9847 9.71572 37.0027 9.63972 37.0387C9.56372 37.0734 9.49972 37.124 9.44772 37.1907C9.39705 37.2574 9.35839 37.338 9.33172 37.4327C9.30639 37.5274 9.29372 37.6334 9.29372 37.7507C9.29372 37.8734 9.30772 37.9827 9.33572 38.0787C9.36372 38.1734 9.40305 38.2534 9.45372 38.3187C9.50572 38.3827 9.56772 38.432 9.63972 38.4667C9.71305 38.5 9.79505 38.5167 9.88572 38.5167C9.97239 38.5167 10.0437 38.5067 10.0997 38.4867C10.1557 38.4654 10.2017 38.442 10.2377 38.4167C10.2751 38.3914 10.3057 38.3687 10.3297 38.3487C10.3551 38.3274 10.3797 38.3167 10.4037 38.3167C10.4331 38.3167 10.4557 38.328 10.4717 38.3507L10.5717 38.4807C10.5277 38.5354 10.4777 38.582 10.4217 38.6207C10.3657 38.6594 10.3051 38.692 10.2397 38.7187C10.1757 38.744 10.1084 38.7627 10.0377 38.7747C9.96705 38.7867 9.89505 38.7927 9.82172 38.7927C9.69505 38.7927 9.57705 38.7694 9.46772 38.7227C9.35972 38.676 9.26572 38.6087 9.18572 38.5207C9.10572 38.4314 9.04305 38.322 8.99772 38.1927C8.95239 38.0634 8.92972 37.916 8.92972 37.7507C8.92972 37.6 8.95039 37.4607 8.99172 37.3327C9.03439 37.2047 9.09572 37.0947 9.17572 37.0027C9.25705 36.9094 9.35639 36.8367 9.47372 36.7847C9.59239 36.7327 9.72839 36.7067 9.88172 36.7067C10.0244 36.7067 10.1497 36.73 10.2577 36.7767C10.3671 36.822 10.4637 36.8867 10.5477 36.9707L10.4537 37.0987ZM13.2119 36.7327V38.7647H12.8899V37.4187C12.8899 37.3814 12.8919 37.34 12.8959 37.2947C12.9012 37.248 12.9079 37.2047 12.9159 37.1647L12.2119 38.3987C12.2012 38.4187 12.1872 38.4347 12.1699 38.4467C12.1525 38.4587 12.1325 38.4647 12.1099 38.4647H12.0699C12.0472 38.4647 12.0265 38.4587 12.0079 38.4467C11.9905 38.4347 11.9765 38.4187 11.9659 38.3987L11.2499 37.1607C11.2565 37.2007 11.2625 37.2447 11.2679 37.2927C11.2732 37.3394 11.2759 37.3814 11.2759 37.4187V38.7647H10.9539V36.7327H11.2399C11.2652 36.7327 11.2899 36.7387 11.3139 36.7507C11.3379 36.7614 11.3585 36.782 11.3759 36.8127L12.0079 37.8687C12.0385 37.93 12.0659 37.9947 12.0899 38.0627C12.1125 37.992 12.1392 37.9274 12.1699 37.8687L12.7899 36.8127C12.8072 36.7807 12.8279 36.7594 12.8519 36.7487C12.8759 36.738 12.9005 36.7327 12.9259 36.7327H13.2119ZM14.6282 36.7067C14.7762 36.7067 14.9095 36.7314 15.0282 36.7807C15.1469 36.83 15.2482 36.9 15.3322 36.9907C15.4162 37.0814 15.4802 37.1914 15.5242 37.3207C15.5695 37.4487 15.5922 37.592 15.5922 37.7507C15.5922 37.9107 15.5695 38.0547 15.5242 38.1827C15.4802 38.3107 15.4162 38.42 15.3322 38.5107C15.2482 38.6014 15.1469 38.6714 15.0282 38.7207C14.9095 38.7687 14.7762 38.7927 14.6282 38.7927C14.4789 38.7927 14.3442 38.7687 14.2242 38.7207C14.1055 38.6714 14.0042 38.6014 13.9202 38.5107C13.8362 38.42 13.7715 38.3107 13.7262 38.1827C13.6822 38.0547 13.6602 37.9107 13.6602 37.7507C13.6602 37.592 13.6822 37.4487 13.7262 37.3207C13.7715 37.1914 13.8362 37.0814 13.9202 36.9907C14.0042 36.9 14.1055 36.83 14.2242 36.7807C14.3442 36.7314 14.4789 36.7067 14.6282 36.7067ZM14.6282 38.5147C14.8282 38.5147 14.9775 38.448 15.0762 38.3147C15.1749 38.18 15.2242 37.9927 15.2242 37.7527C15.2242 37.5114 15.1749 37.3234 15.0762 37.1887C14.9775 37.054 14.8282 36.9867 14.6282 36.9867C14.5269 36.9867 14.4382 37.004 14.3622 37.0387C14.2875 37.0734 14.2249 37.1234 14.1742 37.1887C14.1249 37.254 14.0875 37.3347 14.0622 37.4307C14.0382 37.5254 14.0262 37.6327 14.0262 37.7527C14.0262 37.9927 14.0755 38.18 14.1742 38.3147C14.2742 38.448 14.4255 38.5147 14.6282 38.5147ZM17.6457 37.0107H16.8677V38.7647H16.5117V37.0107H15.7337V36.7387H17.6457V37.0107ZM18.3431 38.2767C18.4085 38.3647 18.4798 38.4267 18.5571 38.4627C18.6345 38.4987 18.7211 38.5167 18.8171 38.5167C19.0065 38.5167 19.1518 38.4494 19.2531 38.3147C19.3545 38.18 19.4051 37.988 19.4051 37.7387C19.4051 37.6067 19.3931 37.4934 19.3691 37.3987C19.3465 37.304 19.3131 37.2267 19.2691 37.1667C19.2251 37.1054 19.1711 37.0607 19.1071 37.0327C19.0431 37.0047 18.9705 36.9907 18.8891 36.9907C18.7731 36.9907 18.6711 37.0174 18.5831 37.0707C18.4965 37.124 18.4165 37.1994 18.3431 37.2967V38.2767ZM18.3251 37.0527C18.4105 36.9474 18.5091 36.8627 18.6211 36.7987C18.7331 36.7347 18.8611 36.7027 19.0051 36.7027C19.1225 36.7027 19.2285 36.7254 19.3231 36.7707C19.4178 36.8147 19.4985 36.8807 19.5651 36.9687C19.6318 37.0554 19.6831 37.1634 19.7191 37.2927C19.7551 37.422 19.7731 37.5707 19.7731 37.7387C19.7731 37.888 19.7531 38.0274 19.7131 38.1567C19.6731 38.2847 19.6151 38.396 19.5391 38.4907C19.4645 38.584 19.3725 38.658 19.2631 38.7127C19.1551 38.766 19.0331 38.7927 18.8971 38.7927C18.7731 38.7927 18.6665 38.772 18.5771 38.7307C18.4891 38.688 18.4111 38.6294 18.3431 38.5547V39.4507H17.9851V36.7387H18.1991C18.2498 36.7387 18.2811 36.7634 18.2931 36.8127L18.3251 37.0527ZM3.97 41.7387V43.7647H3.612V42.8167H2.64V43.7647H2.282V41.7387H2.64V42.5467H3.612V41.7387H3.97ZM5.89191 42.5307C5.89191 42.448 5.87991 42.3727 5.85591 42.3047C5.83324 42.2354 5.79924 42.176 5.75391 42.1267C5.70991 42.076 5.65591 42.0374 5.59191 42.0107C5.52791 41.9827 5.45524 41.9687 5.37391 41.9687C5.20324 41.9687 5.06791 42.0187 4.96791 42.1187C4.86924 42.2174 4.80791 42.3547 4.78391 42.5307H5.89191ZM6.17991 43.4807C6.13591 43.534 6.08324 43.5807 6.02191 43.6207C5.96057 43.6594 5.89457 43.6914 5.82391 43.7167C5.75457 43.742 5.68257 43.7607 5.60791 43.7727C5.53324 43.786 5.45924 43.7927 5.38591 43.7927C5.24591 43.7927 5.11657 43.7694 4.99791 43.7227C4.88057 43.6747 4.77857 43.6054 4.69191 43.5147C4.60657 43.4227 4.53991 43.3094 4.49191 43.1747C4.44391 43.04 4.41991 42.8854 4.41991 42.7107C4.41991 42.5694 4.44124 42.4374 4.48391 42.3147C4.52791 42.192 4.59057 42.086 4.67191 41.9967C4.75324 41.906 4.85257 41.8354 4.96991 41.7847C5.08724 41.7327 5.21924 41.7067 5.36591 41.7067C5.48724 41.7067 5.59924 41.7274 5.70191 41.7687C5.80591 41.8087 5.89524 41.8674 5.96991 41.9447C6.04591 42.0207 6.10524 42.1154 6.14791 42.2287C6.19057 42.3407 6.21191 42.4687 6.21191 42.6127C6.21191 42.6687 6.20591 42.706 6.19391 42.7247C6.18191 42.7434 6.15924 42.7527 6.12591 42.7527H4.77191C4.77591 42.8807 4.79324 42.992 4.82391 43.0867C4.85591 43.1814 4.89991 43.2607 4.95591 43.3247C5.01191 43.3874 5.07857 43.4347 5.15591 43.4667C5.23324 43.4974 5.31991 43.5127 5.41591 43.5127C5.50524 43.5127 5.58191 43.5027 5.64591 43.4827C5.71124 43.4614 5.76724 43.4387 5.81391 43.4147C5.86057 43.3907 5.89924 43.3687 5.92991 43.3487C5.96191 43.3274 5.98924 43.3167 6.01191 43.3167C6.04124 43.3167 6.06391 43.328 6.07991 43.3507L6.17991 43.4807ZM8.02956 43.5047V42.0187H7.38756C7.37423 42.2267 7.35556 42.4107 7.33156 42.5707C7.30756 42.7307 7.27956 42.8714 7.24756 42.9927C7.2169 43.1127 7.18223 43.2147 7.14356 43.2987C7.10623 43.3827 7.0669 43.4514 7.02556 43.5047H8.02956ZM8.74556 43.4947V44.3527C8.74556 44.3874 8.73556 44.414 8.71556 44.4327C8.6969 44.4527 8.67223 44.4627 8.64156 44.4627H8.42356V43.7647H6.71956V44.3607C6.71956 44.386 6.71156 44.4094 6.69556 44.4307C6.6809 44.452 6.65623 44.4627 6.62156 44.4627H6.39756V43.5047H6.46356C6.51023 43.5047 6.55623 43.4967 6.60156 43.4807C6.64823 43.4647 6.6929 43.4347 6.73556 43.3907C6.77823 43.3454 6.81823 43.282 6.85556 43.2007C6.89423 43.1194 6.9289 43.0134 6.95956 42.8827C6.99023 42.752 7.0169 42.5934 7.03956 42.4067C7.06223 42.2187 7.08023 41.996 7.09356 41.7387H8.37556V43.4947H8.74556ZM9.88422 43.5147C10.0176 43.5147 10.1229 43.484 10.2002 43.4227C10.2776 43.36 10.3162 43.2747 10.3162 43.1667C10.3162 43.1187 10.3089 43.0754 10.2942 43.0367C10.2796 42.9967 10.2556 42.962 10.2222 42.9327C10.1889 42.9034 10.1442 42.8807 10.0882 42.8647C10.0336 42.8487 9.96622 42.8407 9.88622 42.8407H9.44822V43.5147H9.88422ZM9.44822 41.9787V42.6147H9.83822C9.89689 42.6147 9.95089 42.6067 10.0002 42.5907C10.0509 42.5734 10.0942 42.55 10.1302 42.5207C10.1662 42.49 10.1942 42.454 10.2142 42.4127C10.2342 42.37 10.2442 42.3234 10.2442 42.2727C10.2442 42.2354 10.2376 42.1994 10.2242 42.1647C10.2109 42.1287 10.1882 42.0974 10.1562 42.0707C10.1242 42.0427 10.0822 42.0207 10.0302 42.0047C9.97822 41.9874 9.91422 41.9787 9.83822 41.9787H9.44822ZM9.84822 41.7387C9.97355 41.7387 10.0809 41.7514 10.1702 41.7767C10.2596 41.802 10.3329 41.8367 10.3902 41.8807C10.4476 41.9234 10.4896 41.974 10.5162 42.0327C10.5429 42.0914 10.5562 42.154 10.5562 42.2207C10.5562 42.2647 10.5502 42.3107 10.5382 42.3587C10.5262 42.4067 10.5049 42.4527 10.4742 42.4967C10.4449 42.5407 10.4042 42.5807 10.3522 42.6167C10.3016 42.6514 10.2376 42.6787 10.1602 42.6987C10.3149 42.7254 10.4342 42.7794 10.5182 42.8607C10.6022 42.9407 10.6442 43.0467 10.6442 43.1787C10.6442 43.2774 10.6242 43.3634 10.5842 43.4367C10.5456 43.5087 10.4916 43.5694 10.4222 43.6187C10.3542 43.668 10.2742 43.7047 10.1822 43.7287C10.0902 43.7527 9.99155 43.7647 9.88622 43.7647H9.10622V41.7387H9.84822ZM12.8286 41.7387V43.7647H12.4726V42.3887C12.4726 42.362 12.4739 42.3334 12.4766 42.3027C12.4793 42.272 12.4826 42.2414 12.4866 42.2107C12.4746 42.2374 12.4626 42.262 12.4506 42.2847C12.4386 42.3074 12.4259 42.328 12.4126 42.3467L11.4346 43.6767C11.4199 43.698 11.4013 43.7187 11.3786 43.7387C11.3573 43.7574 11.3333 43.7667 11.3066 43.7667H11.0906V41.7407H11.4486V43.1167C11.4486 43.142 11.4473 43.17 11.4446 43.2007C11.4419 43.23 11.4386 43.26 11.4346 43.2907C11.4466 43.2654 11.4586 43.242 11.4706 43.2207C11.4826 43.198 11.4946 43.1774 11.5066 43.1587L12.4846 41.8287C12.4993 41.8074 12.5179 41.7874 12.5406 41.7687C12.5633 41.7487 12.5879 41.7387 12.6146 41.7387H12.8286ZM16.2114 43.7647H15.9634C15.8994 43.7647 15.85 43.7547 15.8154 43.7347C15.782 43.7147 15.756 43.6834 15.7374 43.6407L15.3434 43.0107C15.278 42.9067 15.184 42.8547 15.0614 42.8547H14.8574V43.7667H14.5114V42.8547H14.3094C14.2494 42.8547 14.1947 42.868 14.1454 42.8947C14.0974 42.9214 14.058 42.96 14.0274 43.0107L13.6334 43.6407C13.6134 43.6834 13.586 43.7147 13.5514 43.7347C13.518 43.7547 13.4694 43.7647 13.4054 43.7647H13.1594L13.6914 42.9267C13.726 42.868 13.7654 42.8207 13.8094 42.7847C13.8534 42.7487 13.9074 42.7214 13.9714 42.7027C13.9207 42.6867 13.8774 42.6634 13.8414 42.6327C13.8067 42.6007 13.774 42.56 13.7434 42.5107L13.2154 41.7387H13.4954C13.53 41.7387 13.5614 41.748 13.5894 41.7667C13.6174 41.784 13.6394 41.808 13.6554 41.8387L14.0854 42.4787C14.1147 42.5227 14.15 42.5567 14.1914 42.5807C14.2327 42.6034 14.2814 42.6147 14.3374 42.6147H14.5114V41.7387H14.8574V42.6147H15.0274C15.1407 42.6147 15.226 42.5694 15.2834 42.4787L15.7134 41.8387C15.7294 41.808 15.7514 41.784 15.7794 41.7667C15.8087 41.748 15.8407 41.7387 15.8754 41.7387H16.1554L15.6274 42.5107C15.5967 42.56 15.5634 42.6007 15.5274 42.6327C15.4927 42.6634 15.45 42.6867 15.3994 42.7027C15.4634 42.7214 15.5174 42.7487 15.5614 42.7847C15.6054 42.8207 15.6447 42.868 15.6794 42.9267L16.2114 43.7647ZM18.2817 41.7387V43.7647H17.9257V42.3887C17.9257 42.362 17.9271 42.3334 17.9297 42.3027C17.9324 42.272 17.9357 42.2414 17.9397 42.2107C17.9277 42.2374 17.9157 42.262 17.9037 42.2847C17.8917 42.3074 17.8791 42.328 17.8657 42.3467L16.8877 43.6767C16.8731 43.698 16.8544 43.7187 16.8317 43.7387C16.8104 43.7574 16.7864 43.7667 16.7597 43.7667H16.5437V41.7407H16.9017V43.1167C16.9017 43.142 16.9004 43.17 16.8977 43.2007C16.8951 43.23 16.8917 43.26 16.8877 43.2907C16.8997 43.2654 16.9117 43.242 16.9237 43.2207C16.9357 43.198 16.9477 43.1774 16.9597 43.1587L17.9377 41.8287C17.9524 41.8074 17.9711 41.7874 17.9937 41.7687C18.0164 41.7487 18.0411 41.7387 18.0677 41.7387H18.2817ZM21.1025 41.7327V43.7647H20.7805V42.4187C20.7805 42.3814 20.7825 42.34 20.7865 42.2947C20.7918 42.248 20.7985 42.2047 20.8065 42.1647L20.1025 43.3987C20.0918 43.4187 20.0778 43.4347 20.0605 43.4467C20.0432 43.4587 20.0232 43.4647 20.0005 43.4647H19.9605C19.9378 43.4647 19.9172 43.4587 19.8985 43.4467C19.8812 43.4347 19.8672 43.4187 19.8565 43.3987L19.1405 42.1607C19.1472 42.2007 19.1532 42.2447 19.1585 42.2927C19.1638 42.3394 19.1665 42.3814 19.1665 42.4187V43.7647H18.8445V41.7327H19.1305C19.1558 41.7327 19.1805 41.7387 19.2045 41.7507C19.2285 41.7614 19.2492 41.782 19.2665 41.8127L19.8985 42.8687C19.9292 42.93 19.9565 42.9947 19.9805 43.0627C20.0032 42.992 20.0298 42.9274 20.0605 42.8687L20.6805 41.8127C20.6978 41.7807 20.7185 41.7594 20.7425 41.7487C20.7665 41.738 20.7912 41.7327 20.8165 41.7327H21.1025ZM22.5188 41.7067C22.6668 41.7067 22.8001 41.7314 22.9188 41.7807C23.0375 41.83 23.1388 41.9 23.2228 41.9907C23.3068 42.0814 23.3708 42.1914 23.4148 42.3207C23.4601 42.4487 23.4828 42.592 23.4828 42.7507C23.4828 42.9107 23.4601 43.0547 23.4148 43.1827C23.3708 43.3107 23.3068 43.42 23.2228 43.5107C23.1388 43.6014 23.0375 43.6714 22.9188 43.7207C22.8001 43.7687 22.6668 43.7927 22.5188 43.7927C22.3695 43.7927 22.2348 43.7687 22.1148 43.7207C21.9961 43.6714 21.8948 43.6014 21.8108 43.5107C21.7268 43.42 21.6621 43.3107 21.6168 43.1827C21.5728 43.0547 21.5508 42.9107 21.5508 42.7507C21.5508 42.592 21.5728 42.4487 21.6168 42.3207C21.6621 42.1914 21.7268 42.0814 21.8108 41.9907C21.8948 41.9 21.9961 41.83 22.1148 41.7807C22.2348 41.7314 22.3695 41.7067 22.5188 41.7067ZM22.5188 43.5147C22.7188 43.5147 22.8681 43.448 22.9668 43.3147C23.0655 43.18 23.1148 42.9927 23.1148 42.7527C23.1148 42.5114 23.0655 42.3234 22.9668 42.1887C22.8681 42.054 22.7188 41.9867 22.5188 41.9867C22.4175 41.9867 22.3288 42.004 22.2528 42.0387C22.1781 42.0734 22.1155 42.1234 22.0648 42.1887C22.0155 42.254 21.9781 42.3347 21.9528 42.4307C21.9288 42.5254 21.9168 42.6327 21.9168 42.7527C21.9168 42.9927 21.9661 43.18 22.0648 43.3147C22.1648 43.448 22.3161 43.5147 22.5188 43.5147ZM25.3443 42.0987C25.3337 42.1134 25.323 42.1247 25.3123 42.1327C25.3017 42.1407 25.287 42.1447 25.2683 42.1447C25.2483 42.1447 25.2263 42.1367 25.2023 42.1207C25.1783 42.1034 25.1483 42.0847 25.1123 42.0647C25.0777 42.0447 25.0343 42.0267 24.9823 42.0107C24.9317 41.9934 24.869 41.9847 24.7943 41.9847C24.6943 41.9847 24.6063 42.0027 24.5303 42.0387C24.4543 42.0734 24.3903 42.124 24.3383 42.1907C24.2877 42.2574 24.249 42.338 24.2223 42.4327C24.197 42.5274 24.1843 42.6334 24.1843 42.7507C24.1843 42.8734 24.1983 42.9827 24.2263 43.0787C24.2543 43.1734 24.2937 43.2534 24.3443 43.3187C24.3963 43.3827 24.4583 43.432 24.5303 43.4667C24.6037 43.5 24.6857 43.5167 24.7763 43.5167C24.863 43.5167 24.9343 43.5067 24.9903 43.4867C25.0463 43.4654 25.0923 43.442 25.1283 43.4167C25.1657 43.3914 25.1963 43.3687 25.2203 43.3487C25.2457 43.3274 25.2703 43.3167 25.2943 43.3167C25.3237 43.3167 25.3463 43.328 25.3623 43.3507L25.4623 43.4807C25.4183 43.5354 25.3683 43.582 25.3123 43.6207C25.2563 43.6594 25.1957 43.692 25.1303 43.7187C25.0663 43.744 24.999 43.7627 24.9283 43.7747C24.8577 43.7867 24.7857 43.7927 24.7123 43.7927C24.5857 43.7927 24.4677 43.7694 24.3583 43.7227C24.2503 43.676 24.1563 43.6087 24.0763 43.5207C23.9963 43.4314 23.9337 43.322 23.8883 43.1927C23.843 43.0634 23.8203 42.916 23.8203 42.7507C23.8203 42.6 23.841 42.4607 23.8823 42.3327C23.925 42.2047 23.9863 42.0947 24.0663 42.0027C24.1477 41.9094 24.247 41.8367 24.3643 41.7847C24.483 41.7327 24.619 41.7067 24.7723 41.7067C24.915 41.7067 25.0403 41.73 25.1483 41.7767C25.2577 41.822 25.3543 41.8867 25.4383 41.9707L25.3443 42.0987ZM27.5285 42.0107H26.7505V43.7647H26.3945V42.0107H25.6165V41.7387H27.5285V42.0107ZM29.6059 41.7387V43.7647H29.2499V42.3887C29.2499 42.362 29.2513 42.3334 29.2539 42.3027C29.2566 42.272 29.2599 42.2414 29.2639 42.2107C29.2519 42.2374 29.2399 42.262 29.2279 42.2847C29.2159 42.3074 29.2033 42.328 29.1899 42.3467L28.2119 43.6767C28.1973 43.698 28.1786 43.7187 28.1559 43.7387C28.1346 43.7574 28.1106 43.7667 28.0839 43.7667H27.8679V41.7407H28.2259V43.1167C28.2259 43.142 28.2246 43.17 28.2219 43.2007C28.2193 43.23 28.2159 43.26 28.2119 43.2907C28.2239 43.2654 28.2359 43.242 28.2479 43.2207C28.2599 43.198 28.2719 43.1774 28.2839 43.1587L29.2619 41.8287C29.2766 41.8074 29.2953 41.7874 29.3179 41.7687C29.3406 41.7487 29.3653 41.7387 29.3919 41.7387H29.6059Z" fill="white"/>
</svg>
