<svg width="33" height="23" viewBox="0 0 33 23" fill="none" xmlns="http://www.w3.org/2000/svg">
<path d="M8.79396 10.0815C8.17579 10.0815 7.70194 10.2802 7.70194 10.2802L7.57107 11.0573C7.57107 11.0573 7.96195 10.8984 8.55382 10.8984C8.88978 10.8984 9.13518 10.9358 9.13518 11.2086C9.13518 11.3745 9.10538 11.4359 9.10538 11.4359C9.10538 11.4359 8.8407 11.4143 8.718 11.4143C7.93799 11.4143 7.11884 11.7461 7.11884 12.7505C7.11884 13.5416 7.65579 13.7222 7.98941 13.7222C8.62569 13.7222 8.9003 13.3097 8.91432 13.3085L8.88452 13.6532H9.67855L10.0326 11.17C10.032 10.1154 9.11297 10.0815 8.79396 10.0815ZM8.34874 12.9667C8.06887 12.9667 7.99584 12.7534 7.99584 12.6261C7.99584 12.3795 8.12963 12.0827 8.79045 12.0827C8.9447 12.0833 8.96106 12.099 8.98677 12.1037C9.0043 12.2556 8.89212 12.9667 8.34874 12.9667Z" fill="#333333"/>
<path d="M11.6616 10.9141C11.7884 10.9141 12.2774 10.9544 12.2774 10.9544L12.3914 10.1586C12.3914 10.1586 12.0747 10.0879 11.5594 10.0879C10.8921 10.0879 10.2155 10.3543 10.2155 11.2652C10.2155 12.2982 11.3443 12.193 11.3443 12.6289C11.3443 12.9187 11.0288 12.9427 10.7858 12.9427C10.3645 12.9427 9.9859 12.7989 9.98473 12.8048L9.86436 13.5941C9.88598 13.6 10.1197 13.704 10.8763 13.704C11.0791 13.704 12.24 13.7566 12.24 12.5582C12.24 11.4376 11.1656 11.659 11.1656 11.2085C11.1656 10.9842 11.3403 10.9141 11.6616 10.9141Z" fill="#333333"/>
<path d="M13.5587 11.0158H14.0361L14.1512 10.1675H13.7013L13.793 9.6416H12.8915C12.8716 9.66088 12.3592 12.6074 12.3592 12.965C12.3592 13.4972 12.6578 13.7333 13.0779 13.7292C13.4068 13.7269 13.6633 13.6357 13.7539 13.6106L13.8667 12.844C13.8047 12.844 13.7142 12.8709 13.6341 12.8709C13.3204 12.8709 13.2859 12.7032 13.3058 12.5799L13.5587 11.0158Z" fill="#333333"/>
<path d="M17.3373 6.09375H15.7282C15.512 6.38589 15.3087 6.69672 15.1246 7.00055H17.9952C17.7959 6.68387 17.5756 6.38121 17.3373 6.09375Z" fill="#333333"/>
<path d="M29.8922 16.2939C29.8747 16.2676 29.8601 16.2477 29.8484 16.2354C29.842 16.2296 29.8338 16.2232 29.8233 16.2202C29.8484 16.2185 29.8694 16.2091 29.8846 16.1934C29.8992 16.1776 29.9074 16.1589 29.9074 16.1373C29.9074 16.1221 29.9028 16.1075 29.894 16.094C29.8852 16.0806 29.8724 16.0707 29.8566 16.0654C29.842 16.0596 29.8169 16.0566 29.7824 16.0566H29.6807V16.3517H29.7286V16.2267H29.7561C29.7725 16.2267 29.7859 16.2302 29.7935 16.2372C29.8058 16.2471 29.8233 16.2699 29.8437 16.3055L29.8694 16.3523H29.9285L29.8922 16.2939ZM29.7859 16.1875H29.7275V16.0987H29.7824C29.8052 16.0987 29.8204 16.1005 29.8291 16.104C29.8385 16.1075 29.8443 16.1127 29.8496 16.1192C29.8543 16.1262 29.8566 16.1338 29.8566 16.1419C29.8566 16.1554 29.8519 16.1671 29.842 16.1752C29.8321 16.1828 29.8128 16.1875 29.7859 16.1875Z" fill="#333333"/>
<path d="M18.483 7.89014H14.6227C14.3762 8.35697 14.2126 8.70988 14.1664 8.79752H18.8488C18.743 8.48551 18.6215 8.18344 18.483 7.89014Z" fill="#333333"/>
<path d="M6.01396 9.36328L5.12528 11.9984L5.07912 9.36328H3.76333L3.04233 13.6571H3.91232L4.46095 10.4202L4.54158 13.6571H5.16267L6.32129 10.4202L5.80771 13.6571H6.73087L7.44194 9.36328H6.01396Z" fill="#333333"/>
<path d="M23.4114 10.0815C22.7921 10.0815 22.3188 10.2802 22.3188 10.2802L22.1874 11.0573C22.1874 11.0573 22.5788 10.8984 23.1701 10.8984C23.5061 10.8984 23.752 10.9358 23.752 11.2086C23.752 11.3745 23.7211 11.4359 23.7211 11.4359C23.7211 11.4359 23.457 11.4143 23.3331 11.4143C22.5537 11.4143 21.7351 11.7461 21.7351 12.7505C21.7351 13.5416 22.2727 13.7222 22.6057 13.7222C23.2414 13.7222 23.516 13.3097 23.5306 13.3085L23.5008 13.6532H24.2943L24.6483 11.17C24.6501 10.1154 23.7304 10.0815 23.4114 10.0815ZM22.9674 12.9667C22.6869 12.9667 22.6145 12.7534 22.6145 12.6261C22.6145 12.3795 22.7483 12.0827 23.4091 12.0827C23.5627 12.0833 23.5791 12.099 23.6054 12.1037C23.6223 12.2556 23.5096 12.9667 22.9674 12.9667Z" fill="#333333"/>
<path d="M29.9209 13.2613C29.8969 13.2169 29.8619 13.183 29.818 13.1597C29.7748 13.1357 29.7304 13.124 29.6836 13.124C29.6387 13.1246 29.5937 13.1363 29.5493 13.1597C29.5054 13.183 29.4716 13.2169 29.447 13.2613C29.4225 13.3051 29.4102 13.3507 29.4102 13.398C29.4102 13.4454 29.4225 13.4904 29.447 13.5336C29.471 13.5768 29.5049 13.6113 29.5481 13.6358C29.5919 13.6598 29.6369 13.6721 29.6836 13.6721C29.7316 13.6721 29.7771 13.6598 29.8198 13.6358C29.863 13.6113 29.8969 13.5768 29.9209 13.5336C29.946 13.4904 29.9571 13.4454 29.9571 13.398C29.9571 13.3496 29.9454 13.304 29.9209 13.2613ZM29.8829 13.5108C29.863 13.547 29.835 13.5745 29.7982 13.5961C29.7619 13.616 29.7245 13.6265 29.6854 13.6265C29.6457 13.6265 29.6077 13.616 29.572 13.5961C29.5352 13.5757 29.5078 13.5476 29.4867 13.5108C29.4657 13.474 29.4564 13.4366 29.4564 13.3975C29.4564 13.3583 29.4663 13.3203 29.4879 13.2835C29.5084 13.2473 29.5358 13.2193 29.5732 13.1988C29.6106 13.1784 29.6474 13.1696 29.6854 13.1696C29.7234 13.1696 29.7608 13.1789 29.7964 13.1988C29.8338 13.2193 29.8613 13.2467 29.8817 13.2835C29.9022 13.3203 29.9133 13.3583 29.9133 13.3975C29.9133 13.4366 29.9033 13.4746 29.8829 13.5108Z" fill="#333333"/>
<path d="M29.7765 13.4911C29.7596 13.4637 29.7444 13.4444 29.7333 13.4327C29.7263 13.4263 29.7187 13.421 29.7082 13.4175C29.7333 13.4158 29.7538 13.4064 29.7689 13.3906C29.7836 13.3754 29.7923 13.3556 29.7923 13.3345C29.7923 13.3199 29.7876 13.3047 29.7783 13.2913C29.7689 13.2784 29.7567 13.2685 29.7421 13.2627C29.7275 13.2568 29.7018 13.2539 29.6673 13.2539H29.5645V13.5484H29.6124V13.4234H29.6398C29.6568 13.4234 29.6702 13.4269 29.6784 13.4333C29.6907 13.4438 29.707 13.466 29.7286 13.5028L29.7538 13.549H29.8128L29.7765 13.4911ZM29.6714 13.383H29.6135V13.2936H29.6673C29.6907 13.2936 29.7058 13.2954 29.7152 13.2983C29.7228 13.3024 29.7298 13.3065 29.7345 13.3141C29.7397 13.3217 29.7421 13.3281 29.7421 13.338C29.7421 13.3509 29.7368 13.362 29.7281 13.3702C29.7169 13.3801 29.6988 13.383 29.6714 13.383Z" fill="#333333"/>
<path d="M26.4754 10.124C26.0716 10.124 25.7719 10.675 25.7719 10.675L25.8525 10.1684H25.0123L24.4497 13.6636H25.3752C25.6387 12.1702 25.6866 10.959 26.3124 11.1804C26.4228 10.6031 26.5291 10.3794 26.6489 10.1357C26.6489 10.1363 26.5928 10.124 26.4754 10.124Z" fill="#333333"/>
<path d="M28.8008 9.36796L28.6062 10.5745C28.6062 10.5745 28.2673 10.1053 27.7357 10.1053C26.9089 10.1059 26.2206 11.1021 26.2206 12.2461C26.2206 12.9852 26.5881 13.7091 27.3383 13.7091C27.8788 13.7091 28.178 13.3323 28.178 13.3323L28.1388 13.6542H29.0158L29.7053 9.36621L28.8008 9.36796ZM27.6574 12.8327C27.3325 12.8327 27.1806 12.5605 27.1806 12.1328C27.1806 11.4334 27.4944 10.9724 27.8911 10.9724C28.2148 10.973 28.3813 11.1956 28.3813 11.7203C28.3813 12.1964 28.1458 12.8327 27.6574 12.8327Z" fill="#333333"/>
<path d="M32.1505 0.807129H0.84954C0.37978 0.807129 0 1.18749 0 1.65667V21.3439C0 21.8131 0.37978 22.1934 0.84954 22.1934H32.1505C32.6202 22.1934 33 21.8131 33 21.3439V1.65667C33 1.18749 32.6202 0.807129 32.1505 0.807129ZM30.0371 16.3366C30.0126 16.3811 29.9793 16.4149 29.936 16.4389C29.8928 16.4629 29.8472 16.4751 29.8005 16.4751C29.7526 16.4751 29.707 16.4629 29.6638 16.4389C29.6211 16.4149 29.5872 16.3811 29.5621 16.3366C29.5382 16.294 29.5259 16.2484 29.5259 16.2011C29.5259 16.1538 29.5382 16.1088 29.5627 16.0644C29.5867 16.02 29.6217 15.9867 29.6649 15.9627C29.7088 15.9399 29.7532 15.9277 29.7999 15.9277C29.8461 15.9277 29.8905 15.9399 29.9337 15.9627C29.9775 15.9867 30.012 16.02 30.036 16.0644C30.0605 16.1088 30.0722 16.1544 30.0722 16.2011C30.0722 16.2478 30.0617 16.2952 30.0371 16.3366ZM30.6495 11.5006C30.6506 16.1777 26.861 19.9709 22.1833 19.972C19.9957 19.9726 18.001 19.1435 16.4982 17.7816C14.9955 19.1412 13.0049 19.9697 10.8208 19.9697C6.14602 19.9697 2.35172 16.176 2.35172 11.5006C2.35172 6.84388 6.11622 3.06127 10.7665 3.03089C10.7846 3.03089 10.8027 3.03089 10.8208 3.03089C13.0049 3.03089 14.9961 3.8594 16.4988 5.21901C18.001 3.85881 19.9934 3.02972 22.1792 3.02914C26.8569 3.02738 30.6495 6.81876 30.6506 11.4965C30.6495 11.4977 30.6495 11.4982 30.6495 11.5006Z" fill="#333333"/>
<path d="M15.6312 16.8555C15.8994 17.1838 16.1833 17.497 16.4971 17.781C16.5041 17.7745 16.5117 17.7687 16.5187 17.7628C16.5187 17.7628 16.5181 17.7628 16.5181 17.7623H16.5199C16.8284 17.4812 17.1164 17.1786 17.3799 16.8555H15.6312Z" fill="#333333"/>
<path d="M16.7845 12.2072C16.7845 12.2072 16.9032 11.6229 16.9032 11.3851C16.9032 10.7909 16.6075 10.0664 15.6177 10.0664C14.7109 10.067 14.0396 11.0439 14.0396 12.1482C14.0396 13.4225 14.8804 13.7252 15.5973 13.7252C16.2587 13.7252 16.5497 13.5767 16.5497 13.5767L16.7086 12.7073C16.7086 12.7073 16.2055 12.9294 15.751 12.9294C14.7828 12.9294 14.9523 12.2072 14.9523 12.2072H16.7845ZM15.6207 10.8756C16.1296 10.8756 16.0355 11.4476 16.0355 11.4932H15.0346C15.0346 11.4342 15.1293 10.8756 15.6207 10.8756Z" fill="#333333"/>
<path d="M21.0135 10.1861C21.4722 10.1861 21.8409 10.4437 21.8409 10.4437L21.9881 9.48844C21.9881 9.48844 21.4424 9.26758 20.9726 9.26758C19.932 9.26758 18.9195 10.1709 18.9195 11.867C18.9195 12.9918 19.4658 13.7344 20.542 13.7344C20.8459 13.7344 21.3308 13.6111 21.3308 13.6111L21.4921 12.6272C21.4921 12.6272 21.0503 12.8486 20.7465 12.8486C20.1062 12.848 19.8497 12.3596 19.8497 11.8361C19.8497 10.7709 20.4 10.1861 21.0135 10.1861Z" fill="#333333"/>
<path d="M14.5006 15.0762C14.6473 15.3911 14.8179 15.6908 15.0008 15.983H18.0057C18.188 15.692 18.3522 15.3893 18.4988 15.0762H14.5006Z" fill="#333333"/>
<path d="M18.9031 10.1251C18.4994 10.1251 18.2003 10.6761 18.2003 10.6761L18.2815 10.1695H17.4419L16.8792 13.6646H17.8047C18.067 12.1718 18.1161 10.96 18.7419 11.1815C18.8517 10.6036 18.9575 10.3798 19.0773 10.1356C19.0773 10.1356 19.0212 10.1239 18.9031 10.1251Z" fill="#333333"/>
</svg>
