<svg width="60" height="60" viewBox="0 0 60 60" fill="none" xmlns="http://www.w3.org/2000/svg">
<g opacity="0.6">
<g clip-path="url(#clip0)">
<path d="M58.9655 6.20679H1.03448C0.463448 6.20679 0 6.6692 0 7.24127V52.7585C0 53.3306 0.463448 53.793 1.03448 53.793H58.9655C59.5365 53.793 60 53.3306 60 52.7585V7.24127C60 6.6692 59.5365 6.20679 58.9655 6.20679ZM57.931 51.724H2.06897V8.27575H57.931V51.724Z" fill="white"/>
<path d="M16.5517 29.1082C19.7286 29.1082 22.3128 26.5241 22.3128 23.3482C22.3128 20.1703 19.7286 17.5862 16.5517 17.5862C13.3748 17.5862 10.7907 20.1703 10.7907 23.3472C10.7907 26.5241 13.3748 29.1082 16.5517 29.1082ZM16.5517 19.6551C18.5876 19.6551 20.2438 21.3124 20.2438 23.3472C20.2438 25.382 18.5876 27.0393 16.5517 27.0393C14.5159 27.0393 12.8597 25.3831 12.8597 23.3482C12.8597 21.3134 14.5159 19.6551 16.5517 19.6551Z" fill="white"/>
<path d="M7.24137 47.5861C7.48344 47.5861 7.72758 47.5012 7.92413 47.3285L24.7997 32.4712L35.4569 43.1274C35.8614 43.5319 36.5152 43.5319 36.9197 43.1274C37.3241 42.723 37.3241 42.0692 36.9197 41.6647L31.9469 36.6919L41.4445 26.2912L53.0938 36.9702C53.5148 37.3561 54.1697 37.3271 54.5555 36.9061C54.9414 36.485 54.9135 35.8302 54.4914 35.4443L42.0776 24.065C41.8748 23.8799 41.6048 23.7878 41.3328 23.794C41.0586 23.8064 40.8 23.9274 40.6148 24.1302L30.4831 35.2271L25.5766 30.3205C25.1897 29.9347 24.571 29.915 24.1614 30.275L6.55758 45.7747C6.12827 46.1523 6.08689 46.8061 6.46448 47.2354C6.66931 47.4681 6.95482 47.5861 7.24137 47.5861Z" fill="white"/>
</g>
</g>
<defs>
<clipPath id="clip0">
<rect width="60" height="60" fill="white"/>
</clipPath>
</defs>
</svg>
