<svg width="20" height="20" viewBox="0 0 20 20" fill="none" xmlns="http://www.w3.org/2000/svg">
<path d="M19.2125 6.11043C18.452 4.31566 17.1838 2.78961 15.5881 1.71055C13.9929 0.631485 12.0661 -0.000273349 10 8.87254e-08C8.62289 -7.80363e-05 7.3068 0.280469 6.11051 0.787422C4.31578 1.54805 2.78969 2.81613 1.71059 4.41184C0.631524 6.00699 -0.000273349 7.93375 8.87199e-08 10C-7.80363e-05 11.3771 0.280508 12.6933 0.787461 13.8896C1.54805 15.6843 2.81625 17.2104 4.41191 18.2895C6.00715 19.3685 7.93387 20.0003 10 20C11.3771 20.0001 12.6932 19.7195 13.8895 19.2126C15.6842 18.452 17.2103 17.1839 18.2894 15.5882C19.3685 13.993 20.0003 12.0662 20 10C20.0001 8.62281 19.7195 7.30672 19.2125 6.11043ZM17.9849 13.3694C17.3266 14.9234 16.2253 16.2492 14.8413 17.1849C13.4568 18.1205 11.7936 18.6664 10 18.6666C8.80398 18.6666 7.66687 18.4237 6.6307 17.9848C5.07676 17.3266 3.75086 16.2253 2.8152 14.8413C1.87945 13.4568 1.33359 11.7936 1.33332 10C1.3334 8.80391 1.57625 7.66676 2.01512 6.63059C2.67336 5.07664 3.77469 3.75074 5.15871 2.81512C6.5432 1.87941 8.20641 1.33359 10 1.33332C11.1961 1.3334 12.3332 1.57621 13.3693 2.01512C14.9233 2.67332 16.2492 3.77465 17.1848 5.15867C18.1205 6.54316 18.6664 8.20633 18.6666 10C18.6666 11.1961 18.4237 12.3332 17.9849 13.3694Z" fill="#4F7CE5"/>
<path d="M15.2185 9.34767H10.6523V4.78146C10.6523 4.42122 10.3602 4.12915 9.99997 4.12915C9.63974 4.12915 9.34767 4.42122 9.34767 4.78146V9.34767H4.78146C4.42122 9.34767 4.12915 9.63974 4.12915 9.99997C4.12915 10.3602 4.42122 10.6523 4.78146 10.6523H9.34767V15.2185C9.34767 15.5787 9.63974 15.8708 9.99997 15.8708C10.3602 15.8708 10.6523 15.5787 10.6523 15.2185V10.6523H15.2185C15.5787 10.6523 15.8708 10.3602 15.8708 9.99997C15.8708 9.63974 15.5788 9.34767 15.2185 9.34767Z" fill="#4F7CE5"/>
</svg>
