<svg width="33" height="23" viewBox="0 0 33 23" fill="none" xmlns="http://www.w3.org/2000/svg">
<path d="M32.1505 0.807129H0.84954C0.37978 0.807129 0 1.18749 0 1.65667V21.3439C0 21.8131 0.37978 22.1934 0.84954 22.1934H32.1505C32.6202 22.1934 33 21.8131 33 21.3439V1.65667C33 1.18749 32.6202 0.807129 32.1505 0.807129ZM2.55505 7.26982H6.07707C6.55209 7.28794 6.93479 7.43926 7.06684 7.947L7.83283 11.6309C7.08028 9.70393 5.26668 8.10067 2.52583 7.43693L2.55505 7.26982ZM6.81677 15.6717L4.78231 8.72117C6.24476 9.65718 7.49044 11.1424 7.92923 12.176L8.16645 13.0343L10.3914 7.34987H12.7986L9.22107 15.67L6.81677 15.6717ZM14.5678 15.6776H12.2961L13.7165 7.34111H15.9893L14.5678 15.6776ZM18.521 15.8026C17.5026 15.7921 16.5216 15.5905 15.9899 15.3574L16.3095 13.4918L16.6022 13.6244C17.3484 13.9358 17.8316 14.0621 18.7413 14.0621C19.3939 14.0621 20.0933 13.8067 20.0997 13.2482C20.1038 12.883 19.807 12.6224 18.9224 12.2134C18.06 11.8149 16.9183 11.1465 16.9324 9.94932C16.9446 8.32912 18.5269 7.19854 20.7722 7.19854C21.6522 7.19854 22.3574 7.37967 22.8073 7.54852L22.5005 9.35569L22.2955 9.25929C21.8771 9.09102 21.339 8.92859 20.5952 8.94027C19.7059 8.94027 19.2934 9.31071 19.2934 9.65718C19.2888 10.0475 19.7749 10.3046 20.5695 10.6914C21.88 11.2861 22.4859 12.0077 22.4777 12.956C22.4602 14.6855 20.9101 15.8026 18.521 15.8026ZM28.3661 15.6811C28.3661 15.6811 28.1587 14.7229 28.0897 14.4319C27.759 14.4319 25.4406 14.4284 25.18 14.4284C25.0918 14.6533 24.7027 15.6811 24.7027 15.6811H22.3171L25.6901 8.04165C25.9297 7.49886 26.3357 7.34987 26.8803 7.34987H28.6354L30.4742 15.6805L28.3661 15.6811Z" fill="#333333"/>
</svg>
